<?xml version="1.0" encoding="iso-8859-1"?>
<!-- Generator: Adobe Illustrator 19.0.0, SVG Export Plug-In . SVG Version: 6.00 Build 0)  -->
<svg version="1.1" id="Layer_1" xmlns="http://www.w3.org/2000/svg" xmlns:xlink="http://www.w3.org/1999/xlink" x="0px" y="0px"
	 viewBox="0 0 302.063 302.063" style="enable-background:new 0 0 302.063 302.063;" xml:space="preserve">
<g>
	<g>
		<g>
			<path d="M243.228,50.942c-3.627-5.713-11.727-6.427-16.512-1.647c-0.054,0.048-0.102,0.102-0.156,0.156
				c-3.508,3.503-4.147,8.954-1.497,13.143c9.592,15.166,14.329,32.955,13.251,51.603c-1.352,23.369-12.779,45.037-30.069,60.819
				c-14.211,12.966-23.32,30.268-25.89,48.738H117.18c-2.511-19.383-11.77-37.472-26.689-51.785
				c-7.741-7.425-14.603-15.847-18.878-25.681C44.923,84.916,88.731,24.36,146.852,21.666c15.128-0.676,29.753,2.446,42.864,8.943
				c4.013,1.99,8.857,1.057,12.028-2.108l0.156-0.156c5.247-5.236,3.621-13.964-3.02-17.247
				c-16.234-8.02-34.313-11.883-53.019-10.965C83.516,3.024,34.386,59.278,43.04,123.649c3.305,24.586,15.563,47.156,33.24,64.569
				c12.918,12.725,20.026,29.12,20.037,46.27c0.005,5.96,4.415,10.826,10.375,10.826h79.156c12.387,0,17.349-4.614,17.312-10.434
				c-0.102-16.765,7.285-32.998,20.236-44.495c23.272-20.665,36.619-50.326,36.619-81.382
				C260.02,88.044,254.14,68.13,243.228,50.942z"/>
			<path d="M191.341,251.581h-85.036c-5.955,0-10.778,4.828-10.778,10.778c0,5.949,4.823,10.778,10.778,10.778h85.036
				c5.955,0,10.778-4.828,10.778-10.778S197.296,251.581,191.341,251.581z"/>
			<path d="M175.66,280.507h-53.674c-5.955,0-10.778,4.828-10.778,10.778c0,5.949,4.823,10.778,10.778,10.778h53.668
				c5.955,0,10.778-4.828,10.778-10.778S181.615,280.507,175.66,280.507z"/>
		</g>
	</g>
</g>
<g>
</g>
<g>
</g>
<g>
</g>
<g>
</g>
<g>
</g>
<g>
</g>
<g>
</g>
<g>
</g>
<g>
</g>
<g>
</g>
<g>
</g>
<g>
</g>
<g>
</g>
<g>
</g>
<g>
</g>
</svg>
